<?xml version="1.0" encoding="UTF-8"?>
<svg width="700pt" height="700pt" version="1.1" viewBox="0 0 700 700" xmlns="http://www.w3.org/2000/svg" xmlns:xlink="http://www.w3.org/1999/xlink">
 <defs>
  <symbol id="t" overflow="visible">
   <path d="m3.6562-0.21875c-0.1875 0.09375-0.38672 0.16797-0.59375 0.21875-0.19922 0.050781-0.40625 0.078125-0.625 0.078125-0.66797 0-1.1992-0.17969-1.5938-0.54688-0.38672-0.375-0.57812-0.87891-0.57812-1.5156 0-0.64453 0.19141-1.1484 0.57812-1.5156 0.39453-0.375 0.92578-0.5625 1.5938-0.5625 0.21875 0 0.42578 0.027344 0.625 0.078125 0.20703 0.054687 0.40625 0.125 0.59375 0.21875v0.82812c-0.1875-0.125-0.375-0.21875-0.5625-0.28125-0.17969-0.0625-0.37109-0.09375-0.57812-0.09375-0.36719 0-0.65625 0.12109-0.875 0.35938-0.21094 0.23047-0.3125 0.55469-0.3125 0.96875 0 0.40625 0.10156 0.73047 0.3125 0.96875 0.21875 0.23047 0.50781 0.34375 0.875 0.34375 0.20703 0 0.39844-0.023437 0.57812-0.078125 0.1875-0.0625 0.375-0.16016 0.5625-0.29688z"/>
  </symbol>
  <symbol id="d" overflow="visible">
   <path d="m2.6875-2.1719c-0.085938-0.039063-0.16797-0.070313-0.25-0.09375-0.085938-0.019531-0.16797-0.03125-0.25-0.03125-0.25 0-0.44531 0.085937-0.57812 0.25-0.125 0.15625-0.1875 0.38281-0.1875 0.67188v1.375h-0.96875v-2.9844h0.96875v0.48438c0.11328-0.19531 0.25-0.33594 0.40625-0.42188 0.16406-0.09375 0.35938-0.14062 0.57812-0.14062h0.10938c0.039063 0 0.09375 0.007812 0.15625 0.015625z"/>
  </symbol>
  <symbol id="a" overflow="visible">
   <path d="m3.4375-1.5v0.26562h-2.2344c0.03125 0.23047 0.11328 0.40234 0.25 0.51562 0.13281 0.10547 0.32812 0.15625 0.57812 0.15625 0.20703 0 0.41406-0.023438 0.625-0.078125 0.20703-0.0625 0.42188-0.15625 0.64062-0.28125v0.73438c-0.21875 0.09375-0.44531 0.16406-0.67188 0.20312-0.23047 0.039062-0.45312 0.0625-0.67188 0.0625-0.54297 0-0.96484-0.13281-1.2656-0.40625-0.30469-0.28125-0.45312-0.67188-0.45312-1.1719 0-0.47656 0.14453-0.85938 0.4375-1.1406 0.30078-0.28125 0.70703-0.42188 1.2188-0.42188 0.46875 0 0.84375 0.14062 1.125 0.42188s0.42188 0.66406 0.42188 1.1406zm-0.96875-0.32812c0-0.17578-0.058594-0.31641-0.17188-0.42188-0.10547-0.11328-0.24219-0.17188-0.40625-0.17188-0.1875 0-0.33984 0.054687-0.45312 0.15625-0.11719 0.10547-0.1875 0.25-0.21875 0.4375z"/>
  </symbol>
  <symbol id="j" overflow="visible">
   <path d="m1.7969-1.3438c-0.19922 0-0.35156 0.039062-0.45312 0.10938-0.09375 0.0625-0.14062 0.16406-0.14062 0.29688 0 0.11719 0.035156 0.21094 0.10938 0.28125 0.082031 0.0625 0.19531 0.09375 0.34375 0.09375 0.17578 0 0.32812-0.0625 0.45312-0.1875s0.1875-0.28516 0.1875-0.48438v-0.10938zm1.4688-0.35938v1.7031h-0.96875v-0.4375c-0.125 0.17969-0.27344 0.30859-0.4375 0.39062-0.15625 0.082031-0.35156 0.125-0.57812 0.125-0.3125 0-0.57031-0.085938-0.76562-0.26562-0.1875-0.1875-0.28125-0.42188-0.28125-0.70312 0-0.35156 0.11719-0.61328 0.35938-0.78125 0.23828-0.16406 0.61719-0.25 1.1406-0.25h0.5625v-0.0625c0-0.15625-0.0625-0.26562-0.1875-0.32812-0.11719-0.070312-0.29688-0.10938-0.54688-0.10938-0.21094 0-0.40234 0.023437-0.57812 0.0625-0.17969 0.042969-0.33984 0.10156-0.48438 0.17188v-0.71875c0.19531-0.050781 0.39844-0.085938 0.60938-0.10938 0.20703-0.03125 0.41406-0.046875 0.625-0.046875 0.53906 0 0.92969 0.10938 1.1719 0.32812 0.23828 0.21094 0.35938 0.55469 0.35938 1.0312z"/>
  </symbol>
  <symbol id="c" overflow="visible">
   <path d="m1.5-3.8438v0.85938h0.98438v0.67188h-0.98438v1.2812c0 0.13672 0.023438 0.23047 0.078125 0.28125 0.0625 0.042969 0.17578 0.0625 0.34375 0.0625h0.48438v0.6875h-0.8125c-0.38672 0-0.65625-0.078125-0.8125-0.23438s-0.23438-0.42188-0.23438-0.79688v-1.2812h-0.46875v-0.67188h0.46875v-0.85938z"/>
  </symbol>
  <symbol id="i" overflow="visible">
   <path d="m2.5-2.5469v-1.6094h0.95312v4.1562h-0.95312v-0.4375c-0.13672 0.17969-0.28125 0.30859-0.4375 0.39062-0.15625 0.082031-0.33984 0.125-0.54688 0.125-0.375 0-0.68359-0.14453-0.92188-0.4375-0.23047-0.28906-0.34375-0.67188-0.34375-1.1406 0-0.45703 0.11328-0.83203 0.34375-1.125 0.23828-0.28906 0.54688-0.4375 0.92188-0.4375 0.19531 0 0.375 0.042969 0.53125 0.125 0.16406 0.085938 0.31641 0.21484 0.45312 0.39062zm-0.64062 1.9375c0.20703 0 0.36328-0.070313 0.46875-0.21875 0.11328-0.15625 0.17188-0.37891 0.17188-0.67188 0-0.28125-0.058594-0.49219-0.17188-0.64062-0.10547-0.15625-0.26172-0.23438-0.46875-0.23438-0.19922 0-0.35547 0.078125-0.46875 0.23438-0.10547 0.14844-0.15625 0.35938-0.15625 0.64062 0 0.29297 0.050781 0.51562 0.15625 0.67188 0.11328 0.14844 0.26953 0.21875 0.46875 0.21875z"/>
  </symbol>
  <symbol id="h" overflow="visible">
   <path d="m2.0469-0.60938c0.20703 0 0.36328-0.070313 0.46875-0.21875 0.11328-0.15625 0.17188-0.37891 0.17188-0.67188 0-0.28125-0.058594-0.49219-0.17188-0.64062-0.10547-0.15625-0.26172-0.23438-0.46875-0.23438-0.19922 0-0.35547 0.078125-0.46875 0.23438-0.10547 0.14844-0.15625 0.35938-0.15625 0.64062 0 0.29297 0.050781 0.51562 0.15625 0.67188 0.11328 0.14844 0.26953 0.21875 0.46875 0.21875zm-0.625-1.9375c0.125-0.17578 0.26562-0.30469 0.42188-0.39062 0.16406-0.082031 0.35156-0.125 0.5625-0.125 0.36328 0 0.66406 0.14844 0.90625 0.4375 0.23828 0.29297 0.35938 0.66797 0.35938 1.125 0 0.46875-0.12109 0.85156-0.35938 1.1406-0.24219 0.29297-0.54297 0.4375-0.90625 0.4375-0.21094 0-0.39844-0.042969-0.5625-0.125-0.15625-0.082031-0.29688-0.21094-0.42188-0.39062v0.4375h-0.96875v-4.1562h0.96875z"/>
  </symbol>
  <symbol id="g" overflow="visible">
   <path d="m0.0625-2.9844h0.95312l0.8125 2.0156 0.6875-2.0156h0.95312l-1.2656 3.2656c-0.125 0.33203-0.27344 0.56641-0.4375 0.70312-0.16797 0.13281-0.39062 0.20312-0.67188 0.20312h-0.54688v-0.64062h0.29688c0.16406 0 0.28516-0.027344 0.35938-0.078125 0.070313-0.054688 0.12891-0.14062 0.17188-0.26562l0.03125-0.09375z"/>
  </symbol>
  <symbol id="f" overflow="visible">
   <path d="m0.5-3.9844h1.0312v3.5938c0 0.5-0.13672 0.86719-0.40625 1.1094-0.27344 0.25-0.67969 0.375-1.2188 0.375h-0.21875v-0.78125h0.17188c0.20703 0 0.36328-0.0625 0.46875-0.1875 0.11328-0.11719 0.17188-0.28516 0.17188-0.51562z"/>
  </symbol>
  <symbol id="s" overflow="visible">
   <path d="m0.45312-2.9844h0.96875v2.9844h-0.96875zm0-1.1719h0.96875v0.78125h-0.96875z"/>
  </symbol>
  <symbol id="e" overflow="visible">
   <path d="m3.4688-1.8281v1.8281h-0.96875v-1.3906c0-0.25781-0.007812-0.4375-0.015625-0.53125-0.011719-0.10156-0.03125-0.17578-0.0625-0.21875-0.03125-0.0625-0.085937-0.10938-0.15625-0.14062-0.0625-0.039062-0.13281-0.0625-0.20312-0.0625-0.21094 0-0.37109 0.078125-0.48438 0.23438-0.10547 0.15625-0.15625 0.37109-0.15625 0.64062v1.4688h-0.96875v-2.9844h0.96875v0.4375c0.13281-0.17578 0.28516-0.30469 0.45312-0.39062 0.16406-0.082031 0.34375-0.125 0.53125-0.125 0.34375 0 0.60156 0.10938 0.78125 0.32812 0.1875 0.21094 0.28125 0.51172 0.28125 0.90625z"/>
  </symbol>
  <symbol id="b" overflow="visible">
   <path d="m1.875-2.375c-0.21094 0-0.37109 0.078125-0.48438 0.23438-0.10547 0.14844-0.15625 0.35938-0.15625 0.64062 0 0.29297 0.050781 0.51562 0.15625 0.67188 0.11328 0.14844 0.27344 0.21875 0.48438 0.21875 0.20703 0 0.36719-0.070313 0.48438-0.21875 0.11328-0.15625 0.17188-0.37891 0.17188-0.67188 0-0.28125-0.058594-0.49219-0.17188-0.64062-0.11719-0.15625-0.27734-0.23438-0.48438-0.23438zm0-0.6875c0.51953 0 0.92188 0.14062 1.2031 0.42188 0.28906 0.27344 0.4375 0.65234 0.4375 1.1406 0 0.5-0.14844 0.89062-0.4375 1.1719-0.28125 0.27344-0.68359 0.40625-1.2031 0.40625-0.51172 0-0.91406-0.13281-1.2031-0.40625-0.29297-0.28125-0.4375-0.67188-0.4375-1.1719 0-0.48828 0.14453-0.86719 0.4375-1.1406 0.28906-0.28125 0.69141-0.42188 1.2031-0.42188z"/>
  </symbol>
  <symbol id="r" overflow="visible">
   <path d="m2.4219-4.1562v0.625h-0.51562c-0.13672 0-0.23438 0.027344-0.29688 0.078125-0.054687 0.054687-0.078125 0.13672-0.078125 0.25v0.21875h0.82812v0.67188h-0.82812v2.3125h-0.95312v-2.3125h-0.46875v-0.67188h0.46875v-0.21875c0-0.32031 0.085937-0.5625 0.26562-0.71875 0.1875-0.15625 0.47266-0.23438 0.85938-0.23438z"/>
  </symbol>
  <symbol id="q" overflow="visible">
   <path d="m3.2344-2.5c0.11328-0.17578 0.25391-0.3125 0.42188-0.40625 0.16406-0.10156 0.35156-0.15625 0.5625-0.15625 0.33203 0 0.58594 0.10938 0.76562 0.32812 0.1875 0.21094 0.28125 0.51172 0.28125 0.90625v1.8281h-0.96875v-1.5625c0.007813-0.019531 0.015625-0.039062 0.015625-0.0625v-0.10938c0-0.21875-0.03125-0.375-0.09375-0.46875s-0.16406-0.14062-0.29688-0.14062c-0.1875 0-0.33594 0.078125-0.4375 0.23438-0.09375 0.14844-0.14062 0.35938-0.14062 0.64062v1.4688h-0.96875v-1.5625c0-0.33203-0.03125-0.54688-0.09375-0.64062-0.054688-0.09375-0.15234-0.14062-0.29688-0.14062-0.17969 0-0.32031 0.078125-0.42188 0.23438-0.09375 0.14844-0.14062 0.35938-0.14062 0.64062v1.4688h-0.96875v-2.9844h0.96875v0.4375c0.11328-0.17578 0.24219-0.30469 0.39062-0.39062 0.15625-0.082031 0.32812-0.125 0.51562-0.125 0.20703 0 0.39062 0.054688 0.54688 0.15625 0.15625 0.09375 0.27344 0.23047 0.35938 0.40625z"/>
  </symbol>
  <symbol id="p" overflow="visible">
   <path d="m3.4688-1.8281v1.8281h-0.96875v-1.3906c0-0.25781-0.007812-0.4375-0.015625-0.53125-0.011719-0.10156-0.03125-0.17578-0.0625-0.21875-0.03125-0.0625-0.085937-0.10938-0.15625-0.14062-0.0625-0.039062-0.13281-0.0625-0.20312-0.0625-0.21094 0-0.37109 0.078125-0.48438 0.23438-0.10547 0.15625-0.15625 0.37109-0.15625 0.64062v1.4688h-0.96875v-4.1562h0.96875v1.6094c0.13281-0.17578 0.28516-0.30469 0.45312-0.39062 0.16406-0.082031 0.34375-0.125 0.53125-0.125 0.34375 0 0.60156 0.10938 0.78125 0.32812 0.1875 0.21094 0.28125 0.51172 0.28125 0.90625z"/>
  </symbol>
  <symbol id="o" overflow="visible">
   <path d="m0.5-3.9844h1.1562l1.4375 2.7344v-2.7344h0.98438v3.9844h-1.1562l-1.4375-2.7344v2.7344h-0.98438z"/>
  </symbol>
  <symbol id="n" overflow="visible">
   <path d="m0.42188-1.1719v-1.8125h0.96875v0.29688 0.60938 0.48438c0 0.24219 0.003906 0.41797 0.015625 0.53125 0.007812 0.10547 0.03125 0.17969 0.0625 0.21875 0.039062 0.0625 0.09375 0.11719 0.15625 0.15625 0.0625 0.03125 0.13281 0.046875 0.21875 0.046875 0.19531 0 0.35156-0.078125 0.46875-0.23438 0.11328-0.15625 0.17188-0.36719 0.17188-0.64062v-1.4688h0.95312v2.9844h-0.95312v-0.4375c-0.14844 0.17969-0.30469 0.30859-0.46875 0.39062-0.15625 0.082031-0.33594 0.125-0.53125 0.125-0.34375 0-0.60938-0.10156-0.79688-0.3125-0.17969-0.21875-0.26562-0.53125-0.26562-0.9375z"/>
  </symbol>
  <symbol id="m" overflow="visible">
   <path d="m0.5-3.9844h1.7031c0.50781 0 0.89844 0.11719 1.1719 0.34375 0.26953 0.21875 0.40625 0.53906 0.40625 0.95312 0 0.41797-0.13672 0.74219-0.40625 0.96875-0.27344 0.21875-0.66406 0.32812-1.1719 0.32812h-0.67188v1.3906h-1.0312zm1.0312 0.75v1.1094h0.5625c0.19531 0 0.34766-0.046875 0.45312-0.14062 0.11328-0.10156 0.17188-0.24219 0.17188-0.42188 0-0.17578-0.058594-0.3125-0.17188-0.40625-0.10547-0.09375-0.25781-0.14062-0.45312-0.14062z"/>
  </symbol>
  <symbol id="l" overflow="visible">
   <path d="m0.45312-2.9844h0.96875v2.9375c0 0.39453-0.10156 0.69531-0.29688 0.90625-0.1875 0.21875-0.46484 0.32812-0.82812 0.32812h-0.48438v-0.64062h0.17188c0.17578 0 0.29688-0.042969 0.35938-0.125 0.070312-0.074219 0.10938-0.23047 0.10938-0.46875zm0-1.1719h0.96875v0.78125h-0.96875z"/>
  </symbol>
  <symbol id="k" overflow="visible">
   <path d="m2.875-2.8906v0.76562c-0.125-0.082031-0.25781-0.14453-0.39062-0.1875-0.13672-0.039062-0.27344-0.0625-0.40625-0.0625-0.27344 0-0.48047 0.078125-0.625 0.23438-0.14844 0.15625-0.21875 0.37109-0.21875 0.64062 0 0.28125 0.070313 0.5 0.21875 0.65625 0.14453 0.15625 0.35156 0.23438 0.625 0.23438 0.14453 0 0.28516-0.019531 0.42188-0.0625 0.13281-0.039063 0.25781-0.10938 0.375-0.20312v0.78125c-0.14844 0.0625-0.29688 0.10156-0.45312 0.125-0.15625 0.03125-0.3125 0.046875-0.46875 0.046875-0.54297 0-0.96484-0.13281-1.2656-0.40625-0.30469-0.28125-0.45312-0.67188-0.45312-1.1719 0-0.48828 0.14844-0.86719 0.45312-1.1406 0.30078-0.28125 0.72266-0.42188 1.2656-0.42188 0.15625 0 0.3125 0.015625 0.46875 0.046875 0.15625 0.023437 0.30469 0.0625 0.45312 0.125z"/>
  </symbol>
 </defs>
 <g>
  <path d="m579.69 546.88h-457.19c-3.0195 0-5.4688-2.4492-5.4688-5.4688v-457.19c0-3.0195 2.4492-5.4688 5.4688-5.4688h457.19c1.4492 0 2.8398 0.57422 3.8672 1.6016 1.0273 1.0273 1.6016 2.418 1.6016 3.8672v457.19c0 1.4492-0.57422 2.8398-1.6016 3.8672-1.0273 1.0273-2.418 1.6016-3.8672 1.6016zm-451.72-10.938h446.25v-446.25h-446.25z"/>
  <path d="m350 546.88c-71.07 0-139.23-28.234-189.48-78.488-50.254-50.254-78.484-118.41-78.484-189.48s28.23-139.23 78.484-189.48c33.215-33.461 74.676-57.566 120.19-69.883 45.512-12.312 93.469-12.402 139.03-0.25391 45.555 12.148 87.102 36.102 120.44 69.441 33.34 33.34 57.293 74.887 69.441 120.44 12.148 45.559 12.059 93.516-0.25391 139.03-12.316 45.512-36.422 86.973-69.883 120.19-24.824 24.965-54.352 44.754-86.879 58.227-32.523 13.473-67.398 20.359-102.6 20.262zm0-525c-68.168 0-133.55 27.078-181.75 75.281-48.199 48.203-75.281 113.58-75.281 181.75s27.082 133.55 75.281 181.75c31.895 31.957 71.641 54.953 115.24 66.668 43.602 11.719 89.523 11.742 133.14 0.070312 43.617-11.668 83.387-34.621 115.31-66.547 31.926-31.926 54.879-71.695 66.547-115.31 11.672-43.613 11.648-89.535-0.070312-133.14-11.715-43.602-34.711-83.348-66.668-115.24-23.812-23.941-52.137-42.926-83.336-55.848-31.195-12.922-64.645-19.527-98.414-19.434z"/>
  <path d="m338.92 162.64c-0.70703 0-1.4062-0.13672-2.0586-0.40625-6.957-2.8047-12.91-7.6328-17.098-13.859-4.1836-6.2227-6.4102-13.562-6.3828-21.062v-10.926c0-0.92969 0-1.8359 0.097657-2.7109v-0.52344-0.003906c0.27344-3.2422 0.96484-6.4336 2.0664-9.4922 3.8945-10.883 12.566-19.371 23.527-23.027 10.961-3.6602 22.996-2.082 32.645 4.2812 9.6445 6.3594 15.836 16.801 16.793 28.316v0.54688c0.054687 0.83203 0.085937 1.7188 0.085937 2.6133v10.906-0.003907c-0.011718 7.1992-2.0742 14.242-5.9492 20.305s-9.3984 10.898-15.926 13.93c-2.7422 1.2695-5.9922 0.074218-7.2617-2.668-1.2695-2.7422-0.074219-5.9922 2.668-7.2617 4.625-2.1562 8.543-5.582 11.289-9.8828 2.7461-4.3008 4.2109-9.2969 4.2227-14.398v-10.871c0-0.67969 0-1.3125-0.066406-1.9141v-0.35156c-0.71875-9-5.9375-17.027-13.871-21.34s-17.508-4.3242-25.449-0.03125c-7.9453 4.293-13.184 12.309-13.926 21.305v0.26172 0.15234c-0.042969 0.5625-0.066406 1.1523-0.066406 1.7734v0.76562h0.003906c0.003906 0.066406 0.003906 0.13281 0 0.19922v10.051c-0.019531 5.3242 1.5547 10.531 4.5273 14.953 2.9688 4.418 7.1914 7.8477 12.129 9.8438 2.418 0.98438 3.8047 3.5469 3.3047 6.1094-0.50391 2.5664-2.7461 4.418-5.3594 4.4219z"/>
  <path d="m221.71 508.59c-3.1055-0.023438-6.1602-0.77344-8.9258-2.1875-4.75-2.1797-8.293-6.3398-9.6914-11.375-2.5039-9.4492 3.2812-19.48 4.8008-21.984 20.125-48.301 84.438-167.42 90.891-179.38 2.0781-19.195 5.7422-39.91 6.957-46.57-9.0234-14.504-16.789-42.25-19.512-52.641l-142.56-6.0078c-2.1875 0.097656-12.129 0.1875-18.594-5.8945-3.5703-3.418-5.5312-8.1875-5.3945-13.125 0-6.7695 2.9844-10.805 5.4688-13.004 6.5625-5.7422 16.406-5.0625 18.812-4.8125h147.09c12.852-9.7578 34.203-9.418 35.133-9.3945l-0.003906-0.003906c3.0234 0.035156 5.4453 2.5117 5.4102 5.5312s-2.5078 5.4414-5.5273 5.4062h-0.13281c-5.4688-0.12109-21.57 1.0938-29.324 8.0156v0.003906c-1 0.88672-2.293 1.3789-3.6289 1.3789h-149.34c-0.23828 0.015624-0.48047 0.015624-0.71875 0-1.8359-0.23047-7.7539-0.32813-10.578 2.1875-0.75391 0.65625-1.75 1.8711-1.75 4.7578-0.16406 1.9141 0.53516 3.8008 1.9023 5.1484 2.9531 2.7773 8.75 3.0859 10.797 2.9766 0.19141-0.011719 0.38672-0.011719 0.57812 0l146.89 6.168c2.4375 0.10156 4.5117 1.8086 5.0859 4.1797 0.097656 0.39453 9.7656 39.934 20.168 54.961 0.83594 1.2031 1.1523 2.6953 0.875 4.1328 0 0.26172-4.9219 25.977-7.3398 48.922l0.003907 0.003907c-0.078126 0.71484-0.29297 1.4102-0.63672 2.043-0.69922 1.2891-70.461 129.94-91.098 179.7-0.14062 0.32812-0.30859 0.64453-0.50391 0.94141-1.3359 2.0352-4.8984 8.9375-3.6406 13.617 0.31641 1.1797 1.0938 2.9219 4.0039 4.375 3.1406 1.5625 5.1094 1.0938 6.3203 0.63281 4.375-1.7188 7.5703-7.9609 8.3359-10.008 0.12109-0.33594 0.28125-0.65625 0.46875-0.96094 0.57812-0.94141 58.711-94.773 107.68-159.69 1.0312-1.3789 2.6523-2.1875 4.375-2.1875h13.586c1.7188 0 3.3398 0.80859 4.375 2.1875 48.957 64.883 107.1 158.71 107.68 159.69 0.18359 0.30469 0.33984 0.62891 0.46875 0.96094 0.84375 2.1875 4.0039 8.3359 8.3555 10.02 1.2148 0.46875 3.1719 0.91797 6.3008-0.64453 2.9297-1.4648 3.6875-3.2148 4.0039-4.375 1.2578-4.7461-2.2969-11.582-3.6406-13.605h-0.003906c-0.19531-0.29688-0.36328-0.61328-0.5-0.94141-20.641-49.766-90.398-178.41-91.098-179.7h-0.003907c-0.33984-0.63281-0.55469-1.3281-0.63281-2.0469-2.418-22.969-7.2969-48.66-7.3398-48.922-0.27344-1.4414 0.042969-2.9297 0.875-4.1328 10.402-15.027 20.07-54.566 20.168-54.961 0.57422-2.3711 2.6484-4.0781 5.0859-4.1797l146.89-6.168c0.20312-0.015625 0.40234-0.015625 0.60156 0 1.9688 0.10938 7.8203-0.19531 10.773-2.9766 1.3711-1.3477 2.0664-3.2344 1.9062-5.1523 0-2.8984-1.0078-4.1133-1.7617-4.7812-2.9297-2.5586-9.0781-2.3398-10.566-2.1875v0.003907c-0.24219 0.015625-0.48047 0.015625-0.72266 0h-149.38c-1.3398 0.003906-2.6328-0.48438-3.6328-1.3789-7.7969-6.9453-23.832-8.1797-29.301-8.0391-3.0195 0.066406-5.5234-2.3281-5.5898-5.3477-0.066406-3.0195 2.3281-5.5234 5.3477-5.5898 0.94141 0 22.281-0.35938 35.133 9.3945h147.09c2.3516-0.25 12.25-0.92969 18.812 4.8125 2.5039 2.1875 5.4688 6.2344 5.4688 13.004 0.13672 4.9414-1.8203 9.7109-5.3906 13.125-6.4961 6.082-16.406 5.9922-18.594 5.8945l-142.57 6.0273c-2.7227 10.391-10.488 38.141-19.512 52.641 1.2148 6.6602 4.8789 27.344 6.957 46.57 6.4531 11.91 70.766 131.03 90.891 179.38 1.5742 2.5039 7.3047 12.535 4.8008 21.984v0.003906c-1.3984 5.0352-4.9414 9.1953-9.6914 11.375-4.6758 2.543-10.227 2.9219-15.203 1.0391-8.75-3.4453-13.289-13.125-14.371-15.805-4.1875-6.7578-58.57-94.062-105.22-156.24h-8.1172c-46.66 62.168-101.03 149.48-105.22 156.24-1.0938 2.6367-5.5781 12.359-14.371 15.805-2 0.78125-4.1328 1.1719-6.2773 1.1602z"/>
  <path d="m305.95 542.68c-1.0469-0.003906-2.0859-0.089843-3.1172-0.25391-7.9414-1.2461-13.531-7.3281-15.738-17.129l-0.003906 0.003906c-0.88281-4.1641-1.2188-8.4258-1.0039-12.68 0-42.395 1.5625-108.49 1.5742-109.16 0.074219-3.0195 2.5781-5.4102 5.6016-5.3359 3.0195 0.074219 5.4102 2.5781 5.3359 5.6016 0 0.66797-1.5742 66.816-1.5742 109.07v0.42578c0 0.14062-1.0078 17.051 7.5156 18.398l-0.003906-0.003906c1.8203 0.42969 3.7344-0.003907 5.1875-1.1797 4.2422-3.5117 5.4688-12.961 5.5898-16l-0.003906-0.003906c-0.007813-0.14453-0.007813-0.29297 0-0.4375 0.12109-1.0938 11.953-105.56 28.832-183.68 0.28125-1.4453 1.1289-2.7188 2.3594-3.5273 1.2266-0.8125 2.7305-1.0938 4.1719-0.78125 1.4375 0.3125 2.6914 1.1914 3.4727 2.4375 0.78125 1.25 1.0273 2.7578 0.68359 4.1914-16.406 75.93-28.031 177.19-28.625 182.38-0.10938 2.5703-1.0938 16.812-9.5156 23.832-3.0117 2.5078-6.8203 3.8633-10.738 3.8281z"/>
  <path d="m396.3 542.68c-3.9258 0.039063-7.7422-1.3164-10.762-3.8281-8.4531-7.0234-9.4062-21.262-9.5156-23.832-0.58984-5.2383-12.227-106.46-28.633-182.38-0.30859-1.4219-0.039063-2.9023 0.74609-4.125 0.78516-1.2188 2.0234-2.0781 3.4414-2.3828 2.9531-0.64062 5.8672 1.2344 6.5078 4.1875 16.875 78.125 28.711 182.66 28.832 183.68 0.011719 0.14844 0.011719 0.30078 0 0.44922 0.097657 3.0312 1.3438 12.48 5.5898 15.992 1.4453 1.1758 3.3594 1.6094 5.1719 1.1797 8.4648-1.3359 7.5352-18.234 7.5234-18.398s0-0.28516 0-0.42578c0-42.25-1.5625-108.4-1.5742-109.07v0.003906c-0.035156-1.4531 0.50781-2.8555 1.5117-3.9062 1-1.0508 2.375-1.6602 3.8281-1.6953 3.0195-0.074219 5.5273 2.3164 5.5977 5.3359 0 0.66797 1.5625 66.719 1.5742 109.16h0.003906c0.21484 4.2539-0.125 8.5156-1.0078 12.68-2.1875 9.8438-7.7969 15.883-15.738 17.129v-0.003906c-1.0234 0.16406-2.0586 0.24609-3.0977 0.25391z"/>
  <path d="m264.69 161.88c-0.86328 0-1.7148-0.19922-2.4844-0.58984l-86.699-44.145c-2.1875-0.83203-11.211-4.5938-14.809-12.59-1.9844-4.5391-1.9453-9.707 0.097657-14.219 2.6133-6.2461 6.9219-8.8164 10.086-9.8438 8.3008-2.832 17.246 1.6836 19.238 2.8008l136.42 58.625c2.7305 1.2188 3.9766 4.4023 2.8008 7.1484-1.1797 2.75-4.3438 4.043-7.1094 2.9023l-136.72-58.746c-0.20703-0.085938-0.40625-0.18359-0.60156-0.29297-1.5977-0.91797-7.0234-3.2812-10.586-2.0898-0.95312 0.31641-2.3398 1.0938-3.4453 3.7188h-0.003906c-0.88672 1.6992-0.96875 3.7031-0.21875 5.4688 1.707 3.7969 7.3594 6.3867 8.75 6.8672 0.24609 0.085937 0.48438 0.19141 0.71094 0.30859l87.008 44.285c2.3047 1.1172 3.5273 3.6797 2.9414 6.1719-0.58203 2.4922-2.8203 4.2461-5.3789 4.2188z"/>
  <path d="m436.58 161.88c-2.5352 0.003906-4.7383-1.7305-5.3281-4.1914-0.59375-2.4648 0.58594-5.0117 2.8438-6.1562l87.008-44.285c0.23047-0.11719 0.46875-0.21875 0.71094-0.30469 1.8711-0.65625 7.1406-3.1953 8.75-6.9023 0.74219-1.7656 0.66016-3.7734-0.23047-5.4688-1.0938-2.6797-2.5156-3.4141-3.4688-3.7305-3.6875-1.2344-9.2734 1.3438-10.578 2.1016h0.003907c-0.19141 0.10938-0.39453 0.20703-0.60156 0.29297l-136.72 58.746c-2.7734 1.1914-5.9922-0.089843-7.1836-2.8672-1.1953-2.7734 0.089844-5.9922 2.8633-7.1836l136.42-58.625c2.0234-1.0938 10.938-5.6094 19.238-2.832h0.003906c4.6602 1.6172 8.3594 5.2227 10.094 9.8438 2.043 4.5117 2.082 9.6758 0.097656 14.219-3.5977 8.0078-12.578 11.758-14.809 12.59l-86.711 44.145v-0.003906c-0.74609 0.39062-1.5664 0.59766-2.4062 0.61328z"/>
  <path d="m321.56 228.59c-30.242 0-30.711-18.016-30.711-18.781l10.938-0.078125v-0.20703c0 0.33984 0.96094 8.125 19.785 8.125v0.003906c3.0195 0 5.4688 2.4492 5.4688 5.4688s-2.4492 5.4688-5.4688 5.4688z"/>
  <path d="m381.63 228.59c-3.0234 0-5.4688-2.4492-5.4688-5.4688s2.4453-5.4688 5.4688-5.4688c18.824 0 19.754-7.7891 19.785-8.125v0.20703l10.938 0.078125c-0.011719 0.76172-0.49219 18.777-30.723 18.777z"/>
  <path d="m350 218.75c-3.0195 0-5.4688-2.4492-5.4688-5.4688v-21.875c0-3.0195 2.4492-5.4688 5.4688-5.4688s5.4688 2.4492 5.4688 5.4688v21.875c0 1.4492-0.57422 2.8398-1.6016 3.8672-1.0273 1.0273-2.418 1.6016-3.8672 1.6016z"/>
  <path d="m350 287.66c-3.0195 0-5.4688-2.4492-5.4688-5.4688v-1.0938c0-3.0195 2.4492-5.4688 5.4688-5.4688s5.4688 2.4492 5.4688 5.4688v1.0938c0 1.4492-0.57422 2.8398-1.6016 3.8672-1.0273 1.0273-2.418 1.6016-3.8672 1.6016z"/>
  <path d="m351.09 335.34c-16.406 0-22.18-14.383-22.969-21.996-0.30078-3.0039 1.8906-5.6836 4.8945-5.9883 3.0039-0.30078 5.6875 1.8906 5.9883 4.8945 0.34375 2.3477 1.1211 4.6094 2.2969 6.6719 1.9102 3.5703 5.7227 5.707 9.7656 5.4688 10.938 0 13.125-12.961 13.191-13.52 0.18359-1.4648 0.95312-2.793 2.1328-3.6797 1.1797-0.89062 2.668-1.2656 4.125-1.0391 1.4609 0.22266 2.7656 1.0273 3.6211 2.2305 0.85938 1.2031 1.1914 2.6992 0.92969 4.1523-1.1953 7.9297-7.7656 22.805-23.977 22.805z"/>
  <path d="m187.03 231.88h-25.156c-3.0195 0-5.4688-2.4492-5.4688-5.4688s2.4492-5.4688 5.4688-5.4688h25.156c3.0195 0 5.4688 2.4492 5.4688 5.4688s-2.4492 5.4688-5.4688 5.4688z"/>
  <path d="m187.03 271.96h-25.156c-3.0195 0-5.4688-2.4492-5.4688-5.4688 0-3.0195 2.4492-5.4688 5.4688-5.4688h25.156c3.0195 0 5.4688 2.4492 5.4688 5.4688 0 3.0195-2.4492 5.4688-5.4688 5.4688z"/>
  <path d="m187.03 310.42h-25.156c-3.0195 0-5.4688-2.4492-5.4688-5.4688s2.4492-5.4688 5.4688-5.4688h25.156c3.0195 0 5.4688 2.4492 5.4688 5.4688s-2.4492 5.4688-5.4688 5.4688z"/>
  <path d="m187.03 350.52h-25.156c-3.0195 0-5.4688-2.4492-5.4688-5.4688 0-3.0234 2.4492-5.4688 5.4688-5.4688h25.156c3.0195 0 5.4688 2.4453 5.4688 5.4688 0 3.0195-2.4492 5.4688-5.4688 5.4688z"/>
  <path d="m187.03 388.97h-25.156c-3.0195 0-5.4688-2.4453-5.4688-5.4688 0-3.0195 2.4492-5.4688 5.4688-5.4688h25.156c3.0195 0 5.4688 2.4492 5.4688 5.4688 0 3.0234-2.4492 5.4688-5.4688 5.4688z"/>
  <path d="m187.03 429.05h-25.156c-3.0195 0-5.4688-2.4453-5.4688-5.4688 0-3.0195 2.4492-5.4688 5.4688-5.4688h25.156c3.0195 0 5.4688 2.4492 5.4688 5.4688 0 3.0234-2.4492 5.4688-5.4688 5.4688z"/>
  <path d="m187.03 467.51h-25.156c-3.0195 0-5.4688-2.4492-5.4688-5.4688s2.4492-5.4688 5.4688-5.4688h25.156c3.0195 0 5.4688 2.4492 5.4688 5.4688s-2.4492 5.4688-5.4688 5.4688z"/>
  <path d="m187.03 507.6h-25.156c-3.0195 0-5.4688-2.4492-5.4688-5.4688 0-3.0195 2.4492-5.4688 5.4688-5.4688h25.156c3.0195 0 5.4688 2.4492 5.4688 5.4688 0 3.0195-2.4492 5.4688-5.4688 5.4688z"/>
  <path d="m187.03 546.88h-25.156c-3.0195 0-5.4688-2.4492-5.4688-5.4688s2.4492-5.4688 5.4688-5.4688h25.156c3.0195 0 5.4688 2.4492 5.4688 5.4688s-2.4492 5.4688-5.4688 5.4688z"/>
  <path d="m291.23 197.42c-2.6875-0.003906-4.9727-1.9609-5.3945-4.6172-3.5-22.094-19.262-28.863-19.93-29.148h0.003906c-2.6797-1.1992-3.9336-4.3047-2.8359-7.0273 1.0977-2.7266 4.1484-4.0977 6.9141-3.1094 0.90625 0.35156 22.148 9.1328 26.656 37.582 0.22656 1.4297-0.12891 2.8945-0.98047 4.0703-0.85156 1.1719-2.1367 1.957-3.5703 2.1836-0.28516 0.042969-0.57422 0.066406-0.86328 0.066406z"/>
  <path d="m293.12 409.06h-0.17578c-1.4492-0.046875-2.8242-0.66797-3.8164-1.7266-0.99219-1.0586-1.5234-2.4648-1.4766-3.918 2.1875-66.457 10.695-106.5 11.059-108.17 0.64062-2.9531 3.5547-4.8281 6.5078-4.1875s4.8281 3.5547 4.1875 6.5078c-0.085937 0.39453-8.6719 40.84-10.816 106.2-0.09375 2.9492-2.5156 5.293-5.4688 5.293z"/>
  <path d="m412.05 197.42c-0.28906 0-0.57812-0.023437-0.86328-0.066406-1.4336-0.22656-2.7188-1.0117-3.5703-2.1836-0.85156-1.1758-1.207-2.6406-0.98047-4.0703 4.5078-28.438 25.746-37.188 26.656-37.582 2.7656-0.98828 5.8164 0.38281 6.9141 3.1094 1.0977 2.7227-0.15625 5.8281-2.8359 7.0273-0.73438 0.30469-16.406 7.1094-19.93 29.148h0.003906c-0.42188 2.6562-2.707 4.6133-5.3945 4.6172z"/>
  <path d="m410.16 409.06c-2.9531 0-5.375-2.3438-5.4688-5.293-2.1875-65.363-10.73-105.81-10.816-106.2-0.30859-1.418-0.039063-2.9023 0.74609-4.1211 0.78516-1.2227 2.0234-2.0781 3.4414-2.3867 2.9531-0.64062 5.8672 1.2344 6.5078 4.1875 0.35938 1.6719 8.8828 41.715 11.059 108.17 0.046875 1.4531-0.48438 2.8594-1.4766 3.918-0.99219 1.0586-2.3672 1.6797-3.8164 1.7266z"/>
  <use x="70" y="576.40625" xlink:href="#t"/>
  <use x="74.011719" y="576.40625" xlink:href="#d"/>
  <use x="76.710938" y="576.40625" xlink:href="#a"/>
  <use x="80.417969" y="576.40625" xlink:href="#j"/>
  <use x="84.109375" y="576.40625" xlink:href="#c"/>
  <use x="86.722656" y="576.40625" xlink:href="#a"/>
  <use x="90.433594" y="576.40625" xlink:href="#i"/>
  <use x="96.25" y="576.40625" xlink:href="#h"/>
  <use x="100.167969" y="576.40625" xlink:href="#g"/>
  <use x="105.636719" y="576.40625" xlink:href="#f"/>
  <use x="107.667969" y="576.40625" xlink:href="#s"/>
  <use x="109.542969" y="576.40625" xlink:href="#e"/>
  <use x="113.4375" y="576.40625" xlink:href="#b"/>
  <use x="70" y="581.875" xlink:href="#r"/>
  <use x="72.378906" y="581.875" xlink:href="#d"/>
  <use x="75.078125" y="581.875" xlink:href="#b"/>
  <use x="78.832031" y="581.875" xlink:href="#q"/>
  <use x="86.4375" y="581.875" xlink:href="#c"/>
  <use x="89.050781" y="581.875" xlink:href="#p"/>
  <use x="92.941406" y="581.875" xlink:href="#a"/>
  <use x="98.554688" y="581.875" xlink:href="#o"/>
  <use x="103.132812" y="581.875" xlink:href="#b"/>
  <use x="106.890625" y="581.875" xlink:href="#n"/>
  <use x="110.785156" y="581.875" xlink:href="#e"/>
  <use x="116.582031" y="581.875" xlink:href="#m"/>
  <use x="120.589844" y="581.875" xlink:href="#d"/>
  <use x="123.285156" y="581.875" xlink:href="#b"/>
  <use x="127.042969" y="581.875" xlink:href="#l"/>
  <use x="128.917969" y="581.875" xlink:href="#a"/>
  <use x="132.625" y="581.875" xlink:href="#k"/>
  <use x="135.867188" y="581.875" xlink:href="#c"/>
 </g>
</svg>
